{"title":"Karaiyoram 2016 Tamil Movies HDRip XviD AAC New +Sample ~ ☻rDX☻","uid":13175197,"size":740314185,"categoryP":"video","categoryS":"movies","magnet":"?xt=urn:btih:e266aa3ab9aea12c246ed6525b85cbecaa8105ab&amp;dn=Karaiyoram+2016+Tamil+Movies+HDRip+XviD+AAC+New+%2BSample+%7E+%E2%98%BBrDX%E2%98%BB&amp;tr=udp%3A%2F%2Ftracker.leechers-paradise.org%3A6969&amp;tr=udp%3A%2F%2Fzer0day.ch%3A1337&amp;tr=udp%3A%2F%2Fopen.demonii.com%3A1337&amp;tr=udp%3A%2F%2Ftracker.coppersurfer.tk%3A6969&amp;tr=udp%3A%2F%2Fexodus.desync.com%3A6969","seeders":2,"leechers":2,"uploader":"basicssom","files":2,"time":1452278731,"description":"----------------------------------------------------------------\r\nKaraiyoram 2016 Tamil Movies HDRip XviD AAC New Source with Sample ~ ☻rDX☻\r\n\r\nSCREEN SHOTS &amp; POSTER:\r\n  \nhttp://doctorhosts.com/2016/1/Karaiyoram/11.html  \nhttp://doctorhosts.com/2016/1/Karaiyoram/1.html  \nhttp://doctorhosts.com/2016/1/Karaiyoram/2.html  \nhttp://doctorhosts.com/2016/1/Karaiyoram/3.html  \nhttp://doctorhosts.com/2016/1/Karaiyoram/4.html  \nhttp://doctorhosts.com/2016/1/Karaiyoram/5.html  \nhttp://doctorhosts.com/2016/1/Karaiyoram/6.html  \nhttp://doctorhosts.com/2016/1/Karaiyoram/7.html  \nhttp://doctorhosts.com/2016/1/Karaiyoram/8.html  \nhttp://doctorhosts.com/2016/1/Karaiyoram/9.html  \nhttp://doctorhosts.com/2016/1/Karaiyoram/10.html\r\n\r\nFormat                                   : Matroska\r\nFormat version                           : Version 4 / Version 2\r\nFile size                                : 699 MiB\r\nDuration                                 : 1h 51mn\r\nOverall bit rate                         : 878 Kbps\r\nMovie name                               : Karaiyoram 2016 Tamil Movies HDRip XviD AAC New Source ~ rDX ~\r\n\r\nVideo\r\nID                                       : 1\r\nFormat                                   : AVC\r\nFormat/Info                              : Advanced Video Codec\r\nFormat profile                           :   \r\nFormat settings, CABAC                   : Yes\r\nFormat settings, ReFrames                : 4 frames\r\nCodec ID                                 : V_MPEG4/ISO/AVC\r\nDuration                                 : 1h 51mn\r\nBit rate                                 : 780 Kbps\r\nWidth                                    : 640 pixels\r\nHeight                                   : 272 pixels\r\nDisplay aspect ratio                     : 2.35:1\r\nFrame rate mode                          : Constant\r\nFrame rate                               : 25.253 fps\r\nOriginal frame rate                      : 25.250 fps\r\nColor space                              : YUV\r\nChroma subsampling                       : 4:2:0\r\nBit depth                                : 8 bits\r\nScan type                                : Progressive\r\nBits/(Pixel*Frame)                       : 0.177\r\nStream size                              : 608 MiB (87%)\r\nTitle                                    : ~ rDX ~\r\nWriting library                          : XviD\r\nLanguage                                 : Tamil\r\nDefault                                  : Yes\r\nForced                                   : Yes\r\n\r\nAudio\r\nID                                       : 2\r\nFormat                                   : MPEG Audio\r\nFormat version                           : Version 1\r\nFormat profile                           : Layer 3\r\nMode                                     : Joint stereo\r\nMode extension                           : MS Stereo\r\nCodec ID                                 : A_MPEG/L3\r\nCodec ID/Hint                            : MP3\r\nDuration                                 : 1h 51mn\r\nBit rate mode                            : Constant\r\nBit rate                                 : 96.0 Kbps\r\nChannel(s)                               : 2 channels\r\nSampling rate                            : 44.1 KHz\r\nCompression mode                         : Lossy\r\nStream size                              : 76.4 MiB (11%)\r\nTitle                                    : ~ rDX ~\r\nWriting library                          : LAME3.98.2\r\nLanguage                                 : Tamil\r\nDefault                                  : Yes\r\nForced                                   : Yes\r\n\r\nIMDB                                     \r\nna","torrent":{"xt":"urn:btih:e266aa3ab9aea12c246ed6525b85cbecaa8105ab","amp;dn":"Karaiyoram+2016+Tamil+Movies+HDRip+XviD+AAC+New+%2BSample+%7E+%E2%98%BBrDX%E2%98%BB","amp;tr":["udp%3A%2F%2Ftracker.leechers-paradise.org%3A6969","udp%3A%2F%2Fzer0day.ch%3A1337","udp%3A%2F%2Fopen.demonii.com%3A1337","udp%3A%2F%2Ftracker.coppersurfer.tk%3A6969","udp%3A%2F%2Fexodus.desync.com%3A6969"],"infoHash":"e266aa3ab9aea12c246ed6525b85cbecaa8105ab","infoHashBuffer":{"type":"Buffer","data":[226,102,170,58,185,174,161,44,36,110,214,82,91,133,203,236,170,129,5,171]},"announce":[],"urlList":[]}}